<?xml version="1.0" encoding="UTF-8"?>
<svg id="Layer_1" xmlns="http://www.w3.org/2000/svg" version="1.1" viewBox="0 0 156 40">
  <!-- Generator: Adobe Illustrator 29.8.4, SVG Export Plug-In . SVG Version: 2.1.1 Build 6)  -->
  <defs>
    <style>
      .st0 {
        fill: #fff;
      }
    </style>
  </defs>
  <path class="st0" d="M38.2,28.5c-.5,1.4-1.1,2.6-2,3.7-.8,1.1-1.8,2-2.9,2.8-1.1.8-2.2,1.4-3.5,1.8-1.3.4-2.6.7-4.1.7h-15.5c-2.8,0-4.9-.8-6.3-2.5-1.4-1.6-1.8-3.8-1.2-6.5h35.5ZM9.7,2.5h12l-6.3,23.5H3.4L9.7,2.5ZM38.9,26h-11.9l6.2-23.5h12l-6.3,23.5Z"/>
  <path class="st0" d="M46.9,14h12l-.8,3h4.7c.6,0,1.2,0,1.8-.2.6-.1,1.1-.3,1.5-.6.4-.3.8-.6,1.1-1.1.3-.5.4-1.1.4-1.8s-.1-.8-.3-1c-.2-.2-.5-.4-.9-.5-.3-.1-.7-.2-1.1-.2h-21.6l2.4-9h25.4c1.2,0,2.3.1,3.4.3s2,.6,2.9,1.2c.9.5,1.5,1.3,2,2.1.5.9.8,2,.8,3.3,0,2-.4,3.9-1.2,5.9-.8,2-1.9,3.7-3.3,5.3-1.4,1.6-3,2.8-4.9,3.8s-3.8,1.5-5.9,1.5h-9.4l-3.1,11.5h-12l6.2-23.5h-.1Z"/>
  <path class="st0" d="M116.1,28.5c-.8,3-2.3,5.2-4.5,6.8s-4.8,2.2-7.8,2.2h-25l6.3-23.5h12l-2.8,10.5c-.3,1.2-.2,2.2.3,2.9s1.4,1.1,2.6,1.1h19-.1ZM83.1,2.5h30c1.5,0,2.8.2,3.9.7s2,1.2,2.6,2c.6.9,1,1.9,1.2,3.2.1,1.2,0,2.6-.4,4.1l-3.6,13.5h-11.5l2.8-10.5c.3-1.2.2-2.2-.3-2.9s-1.4-1.1-2.6-1.1h-24.5l2.4-9Z"/>
  <path class="st0" d="M119.1,28.5h28.9c-.5,1.2-1.1,2.4-1.8,3.5-.7,1.1-1.7,2-2.8,2.9-1.1.8-2.4,1.5-4,2s-3.3.7-5.3.7h-17.5l2.4-9,.1-.1ZM136.7,26c0-.4-.2-.8-.7-1.1-.5-.3-1.4-.4-2.8-.4h-2.7c-2.3,0-4.1-.3-5.4-.9s-2.3-1.4-2.9-2.5c-.6-1-.9-2.2-.8-3.5,0-1.3.2-2.7.6-4.1.4-1.4.9-2.8,1.6-4.1s1.6-2.5,2.8-3.5c1.1-1,2.5-1.8,4.2-2.5,1.7-.6,3.6-.9,5.9-.9h17l-2.4,9h-12.5c-1.6,0-2.7.2-3.3.6-.6.4-1,.9-1.2,1.4v.8c0,.2.2.5.4.6.2.2.6.3,1.1.4.5.1,1.1.2,2,.2h2.6c2.2,0,4,.3,5.3.9,1.3.6,2.3,1.4,2.9,2.3s.9,2.1,1,3.3c0,1.3-.1,2.6-.5,4h-12.2Z"/>
</svg>