<?xml version="1.0" encoding="UTF-8"?>
<svg id="Layer_1" xmlns="http://www.w3.org/2000/svg" version="1.1" viewBox="0 0 70 70">
  <!-- Generator: Adobe Illustrator 29.8.4, SVG Export Plug-In . SVG Version: 2.1.1 Build 6)  -->
  <defs>
    <style>
      .st0 {
        fill: #3f2d2d;
      }

      .st1 {
        fill: #fff;
      }

      .st2 {
        display: none;
      }
    </style>
  </defs>
  <g class="st2">
    <path class="st0" d="M-83.611,8.335c1.561,0,2.831-1.27,2.831-2.831s-1.27-2.831-2.831-2.831-2.831,1.27-2.831,2.831,1.27,2.831,2.831,2.831ZM-83.611,4.56c.521,0,.944.423.944.944s-.423.944-.944.944-.944-.423-.944-.944.423-.944.944-.944Z"/>
    <path class="st0" d="M-70.045-4.766h-3.998c-.522,0-.944.423-.944.944V.81h-2.871c-1.386-1.63-3.45-2.668-5.752-2.668s-4.366,1.037-5.752,2.668h-1.668c-1.561,0-2.831,1.27-2.831,2.831v20.762c0,1.561,1.27,2.831,2.831,2.831h23.207c2.295,0,4.161-1.866,4.161-4.161V1.617c0-3.52-2.863-6.383-6.383-6.383ZM-73.1-2.878h3.054c2.479,0,4.496,2.017,4.496,4.496v18.127c-1.328-.7-3.11-.7-4.496-.7h-3.054V-2.878ZM-74.987,2.697v11.705l-3.936,1.263-1.786-2.654c2.045-1.862,4.648-4.739,4.648-7.319,0-1.064-.222-2.076-.621-2.995,0,0,1.695,0,1.695,0ZM-83.611.03c3.122,0,5.662,2.54,5.662,5.662,0,2.346-3.682,5.74-5.662,7.306-1.981-1.565-5.662-4.959-5.662-7.306,0-3.122,2.54-5.662,5.662-5.662ZM-91.03,2.697h.491c-.399.919-.621,1.931-.621,2.995,0,4.005,6.275,8.729,6.991,9.254.166.122.362.183.558.183s.393-.061.558-.183c.133-.098.459-.341.9-.697l1.357,2.017-11.18,3.588V3.641c0-.52.423-.944.944-.944h.002ZM-91.974,24.403v-2.567l3.175-1.019,8.379,4.53h-10.611c-.521,0-.944-.423-.944-.944h.001ZM-67.823,25.347h-8.68c-.052-.046-.109-.088-.173-.123l-9.632-5.206,11.321-3.633v3.603c0,.521.422.944.944.944h3.998c3.497,0,4.419.448,4.486,2.179,0,.013.004.026.005.039-.04,1.218-1.042,2.198-2.27,2.198h0Z"/>
  </g>
  <g>
    <g>
      <path class="st1" d="M14.649,56.567h9.413c.469,0,.823.217,1.063.65.082.164.123.346.123.545v1.978h-10.564c-.662,0-1.213.275-1.652.826-.275.375-.413.776-.413,1.204v1.837c0,.521.19.99.571,1.406.158.141.296.249.413.325.141.082.272.146.396.193.246.076.434.114.562.114h6.926v-1.512h-5.212v-1.441c0-.328.064-.568.193-.721.129-.234.346-.404.65-.51.111-.023.214-.035.308-.035h7.805v6.249c0,.322-.144.615-.431.879-.223.17-.469.255-.738.255h-9.431c-1.061,0-2.062-.325-3.006-.976-.17-.129-.372-.302-.606-.519-.234-.24-.416-.445-.545-.615-.686-.938-1.028-1.992-1.028-3.164v-1.696c0-1.453.524-2.713,1.573-3.779.34-.305.604-.513.791-.624.229-.152.469-.284.721-.396.691-.316,1.397-.475,2.118-.475v.002Z"/>
      <path class="st1" d="M26.404,56.567h2.786c.439,0,.762.214.967.642.059.088.437.741,1.134,1.96,1.014,1.752,2.042,3.53,3.085,5.335.041.07.176.302.404.694h.009c.035-.064.51-.888,1.424-2.47,1.348-2.32,2.057-3.551,2.127-3.691.059-.088.448-.759,1.169-2.013.135-.193.308-.328.519-.404.1-.035.226-.053.378-.053h2.76c.006,0,.009.003.009.009v11.188c0,.404-.173.709-.519.914-.152.088-.311.132-.475.132h-2.153c-.006,0-.009-.003-.009-.009v-6.346c-.117.193-.727,1.245-1.828,3.155l-1.336,2.312c-.211.299-.486.448-.826.448h-2.487c-.328,0-.598-.141-.809-.422-.035-.047-.381-.645-1.037-1.793-.041-.064-.53-.908-1.468-2.531-.334-.58-.56-.97-.677-1.169v6.346c0,.006-.003.009-.009.009h-2.153c-.287,0-.539-.12-.756-.36-.158-.193-.237-.404-.237-.633v-11.241c0-.006.003-.009.009-.009h0Z"/>
      <path class="st1" d="M45.691,56.567h8.982c1.582,0,2.906.343,3.973,1.028.182.105.381.255.598.448.873.826,1.31,1.86,1.31,3.103,0,1.043-.316,1.937-.949,2.681-.164.182-.302.313-.413.396-.264.223-.492.384-.686.483-1.061.615-2.338.923-3.832.923l-6.768.035h-.185v1.995c0,.375-.167.691-.501.949-.205.135-.434.202-.686.202h-1.978v-11.109c0-.322.144-.615.431-.879.217-.17.451-.255.703-.255h.001ZM47.721,59.74v2.769h7.181c.686,0,1.178-.144,1.477-.431.053-.053.108-.111.167-.176.164-.229.246-.486.246-.773,0-.598-.293-1.014-.879-1.248-.264-.094-.595-.141-.993-.141h-7.199Z"/>
    </g>
    <g>
      <path class="st1" d="M26.949,23.309c2.693,0,4.884-2.191,4.884-4.884s-2.191-4.884-4.884-4.884-4.884,2.191-4.884,4.884,2.191,4.884,4.884,4.884ZM26.949,17.041c.763,0,1.384.621,1.384,1.384s-.621,1.384-1.384,1.384-1.384-.621-1.384-1.384.621-1.384,1.384-1.384Z"/>
      <path class="st1" d="M60.255,11.972c0-5.945-4.837-10.782-10.782-10.782h-6.639c-.967,0-1.75.784-1.75,1.75v7.508h-4.51c-2.334-2.706-5.779-4.429-9.625-4.429s-7.291,1.723-9.625,4.429h-2.694c-2.693,0-4.884,2.191-4.884,4.884v34.474c0,2.693,2.191,4.884,4.884,4.884h38.534c3.91,0,7.092-3.182,7.092-7.092v-30.916s0-4.71,0-4.71ZM44.584,4.69h4.889c4.016,0,7.282,3.267,7.282,7.282v29.79c-2.205-1.038-5.049-1.038-7.282-1.038h-4.889V4.69ZM41.084,13.948v19.119l-6.277,2.014-2.802-4.163c3.4-3.119,7.663-7.883,7.663-12.181,0-1.695-.34-3.31-.944-4.79h2.36ZM26.949,9.519c5.083,0,9.219,4.136,9.219,9.219,0,3.439-5.284,8.788-9.219,11.901-3.935-3.113-9.219-8.461-9.219-11.901,0-5.083,4.136-9.219,9.219-9.219ZM14.629,13.948h.544c-.604,1.48-.944,3.095-.944,4.79,0,6.74,10.487,14.635,11.683,15.514.308.226.672.339,1.036.339s.728-.113,1.036-.339c.206-.151.691-.514,1.346-1.039l2.008,2.982-18.093,5.806V15.332c0-.763.621-1.384,1.384-1.384ZM13.245,49.806v-4.129l5.071-1.628,13.209,7.14H14.629c-.763,0-1.384-.621-1.384-1.384ZM53.163,51.19h-14.347c-.083-.067-.17-.129-.267-.181l-15.615-8.441,18.149-5.824v5.731c0,.966.783,1.75,1.75,1.75h6.639c5.733,0,7.159.675,7.266,3.441,0,.014.005.027.006.041-.059,1.93-1.637,3.484-3.581,3.484Z"/>
    </g>
  </g>
</svg>