<?xml version="1.0" encoding="UTF-8"?>
<svg id="Layer_1" xmlns="http://www.w3.org/2000/svg" version="1.1" viewBox="0 0 296 318">
  <!-- Generator: Adobe Illustrator 29.8.4, SVG Export Plug-In . SVG Version: 2.1.1 Build 6)  -->
  <defs>
    <style>
      .st0 {
        fill: #fff;
      }
    </style>
  </defs>
  <path class="st0" d="M133.945,277.666c0-6.14-4.977-11.117-11.117-11.117s-11.117,4.977-11.117,11.117,4.977,11.117,11.117,11.117,11.117-4.977,11.117-11.117ZM117.712,277.666c0-2.821,2.295-5.117,5.117-5.117s5.117,2.295,5.117,5.117-2.295,5.117-5.117,5.117-5.117-2.295-5.117-5.117Z"/>
  <path class="st0" d="M294.731,190.5c0-6.14-4.977-11.117-11.117-11.117s-11.117,4.977-11.117,11.117c0,5.557,4.082,10.148,9.408,10.972-2.121,23.766-10.16,41.716-23.946,53.377-13.548,11.459-29.81,14.285-39.537,14.859-2.018-2.801-5.3-4.631-9.016-4.631-6.139,0-11.117,4.977-11.117,11.117s4.977,11.117,11.117,11.117c5.649,0,10.302-4.216,11.012-9.672,10.98-.817,27.977-4.263,42.627-16.614,16.025-13.51,25.102-34.204,27.032-61.491,2.814-2.017,4.654-5.307,4.654-9.033ZM278.498,190.5c0-2.821,2.295-5.117,5.117-5.117s5.117,2.295,5.117,5.117-2.295,5.117-5.117,5.117-5.117-2.295-5.117-5.117Z"/>
  <path class="st0" d="M241.678,61.538c.502.209,1.023.308,1.535.308,1.567,0,3.055-.927,3.694-2.464l6.772-16.268c.85-2.039-.115-4.381-2.155-5.23s-4.381.117-5.229,2.156l-6.772,16.268c-.85,2.039.115,4.381,2.155,5.23Z"/>
  <path class="st0" d="M263.537,88.891c.629,0,1.266-.148,1.86-.461l16.785-8.834c1.955-1.029,2.705-3.448,1.677-5.402-1.03-1.956-3.449-2.705-5.403-1.677l-16.785,8.834c-1.955,1.029-2.705,3.448-1.677,5.402.717,1.361,2.105,2.138,3.543,2.138Z"/>
  <path class="st0" d="M261.595,115.81c0,2.209,1.791,4,4,4h21.086c2.209,0,4-1.791,4-4s-1.791-4-4-4h-21.086c-2.209,0-4,1.791-4,4Z"/>
  <path class="st0" d="M271.11,161.73c.78.781,1.805,1.172,2.828,1.172s2.048-.391,2.828-1.172c1.562-1.562,1.562-4.095,0-5.657l-14.822-14.822c-1.561-1.562-4.096-1.562-5.656,0-1.562,1.562-1.562,4.095,0,5.657l14.822,14.822Z"/>
  <rect class="st0" x="198.289" y="102.092" width="22.233" height="6.503"/>
  <path class="st0" d="M256.761,243.319v-4.752c0-2.255-1.828-4.082-4.082-4.082h-12.703v-44.605c0-1.658-1.344-3.003-3.003-3.003h-12.899v-7.494h11.006c2.311,0,4.184-1.873,4.184-4.184v-31.126c19.735-31.041,16.117-50.758,9.546-61.868-9.334-15.784-29.367-22.65-43.061-23.159v-27.215c4.16-1.607,7.117-5.635,7.117-10.363,0-6.14-4.977-11.117-11.117-11.117s-11.117,4.977-11.117,11.117c0,4.727,2.956,8.755,7.117,10.363v35.563l4.286-.307c11.042-.789,31.355,4.762,39.889,19.19,7.875,13.315,4.41,32.145-10.019,54.451l-.642.991v23.856h-8.073l-2.668-53.301h-22.233l-2.485,74.601h-17.669v-20.712l-37.988,20.712v-16.883l-25.325,16.883v56.442h47.828v37.759c-10.36,17.008-22.011,26.051-34.64,26.884-21.35,1.413-39.271-20.956-39.446-21.179l-1.039-1.319-1.669-.183c-44.099-4.815-43.641-38.914-43.6-40.35l.089-2.529-2.248-1.164c-30.046-15.55-18.581-50.508-18.08-51.982l.659-1.92-1.161-1.666c-29.181-41.88,5.907-69.942,7.408-71.111l1.849-1.427-.334-2.311c-2.079-14.38.211-26.136,6.808-34.941,9.649-12.88,25.553-15.275,25.702-15.297l3.208-.439.238-3.23c2.611-35.513,36.42-33.792,37.851-33.702l1.407.095,1.156-.808c15.868-11.097,29.06-14.985,39.212-11.559,9.808,3.312,13.987,12.861,14.864,15.154v101.028h-29.49l-.061.062-17.492-17.492,20.805-22.036v-35.718c4.161-1.607,7.117-5.635,7.117-10.363,0-6.139-4.977-11.117-11.117-11.117s-11.117,4.977-11.117,11.117c0,4.727,2.956,8.755,7.116,10.363v32.538l-18.464,19.556-7.991-7.991v-16.718c4.16-1.607,7.116-5.635,7.116-10.363,0-6.14-4.977-11.117-11.117-11.117s-11.117,4.977-11.117,11.117c0,4.728,2.956,8.755,7.117,10.363v20.032l33.554,33.555-9.423,9.657h-37.33l-12.219-12.219v-18.827c4.16-1.607,7.117-5.635,7.117-10.363,0-6.14-4.977-11.117-11.117-11.117s-11.117,4.977-11.117,11.117c0,4.727,2.956,8.755,7.117,10.363v22.141l16.906,16.905h32.837l-11.067,11.342h-40.366c-1.607-4.16-5.635-7.116-10.363-7.116-6.14,0-11.117,4.977-11.117,11.117s4.977,11.117,11.117,11.117c4.728,0,8.755-2.956,10.363-7.117h36.365v36.858h-25.249c-1.607-4.16-5.635-7.117-10.363-7.117-6.139,0-11.117,4.977-11.117,11.117s4.977,11.117,11.117,11.117c4.728,0,8.755-2.956,10.363-7.117h25.249v13.348l-13.807,13.807c-1.364-.597-2.868-.934-4.453-.934-6.139,0-11.117,4.977-11.117,11.117s4.977,11.117,11.117,11.117,11.117-4.977,11.117-11.117c0-1.623-.356-3.161-.981-4.551l16.124-16.123v-62.165l33.317-34.143h34.119V24.797l-.181-.581c-.198-.638-5.038-15.698-20.019-20.82-12.46-4.258-27.724-.29-45.386,11.803-7.423.016-40.207,2.148-44.587,38.091-5.918,1.442-18.841,5.808-27.801,17.704-7.612,10.106-10.528,23.14-8.68,38.763-3.347,3.009-10.582,10.33-15.449,21.162-5.806,12.922-9.183,33.325,7.087,57.736-2.249,8.475-8.847,41.755,20.491,58.565.71,9.23,6.291,40.405,49.01,45.822,4.4,5.104,21.336,22.984,42.673,22.983.811,0,1.629-.026,2.452-.079,15.658-1.015,29.651-11.683,41.591-31.708l.564-.947v-39.973h86.11ZM206.748,207.687h17.08v17.08h-17.08v-17.08ZM181.379,207.687h17.08v17.08h-17.08v-17.08ZM130.646,36.46c2.821,0,5.117,2.295,5.117,5.117s-2.295,5.117-5.117,5.117-5.117-2.295-5.117-5.117,2.295-5.117,5.117-5.117ZM96.191,63.845c2.821,0,5.117,2.295,5.117,5.117s-2.295,5.117-5.117,5.117-5.117-2.295-5.117-5.117,2.295-5.117,5.117-5.117ZM62.773,96.043c2.821,0,5.117,2.295,5.117,5.117s-2.295,5.117-5.117,5.117-5.117-2.295-5.117-5.117,2.295-5.117,5.117-5.117ZM46.72,171.027c-2.821,0-5.117-2.295-5.117-5.117s2.295-5.117,5.117-5.117,5.117,2.295,5.117,5.117-2.295,5.117-5.117,5.117ZM57.836,215.885c-2.821,0-5.117-2.295-5.117-5.117s2.295-5.117,5.117-5.117,5.117,2.295,5.117,5.117-2.295,5.117-5.117,5.117ZM75.188,257.222c-2.821,0-5.117-2.295-5.117-5.117s2.295-5.117,5.117-5.117,5.117,2.295,5.117,5.117-2.295,5.117-5.117,5.117ZM147.719,224.767h-17.08v-17.08h17.08v17.08ZM156.009,207.687h17.08v17.08h-17.08v-17.08Z"/>
</svg>