<?xml version="1.0" encoding="UTF-8"?>
<svg id="Layer_1" xmlns="http://www.w3.org/2000/svg" version="1.1" viewBox="0 0 100 100">
  <!-- Generator: Adobe Illustrator 29.8.4, SVG Export Plug-In . SVG Version: 2.1.1 Build 6)  -->
  <defs>
    <style>
      .st0 {
        fill: #fff;
        fill-rule: evenodd;
      }
    </style>
  </defs>
  <path class="st0" d="M31.091,52.295l-6.598,12.754h12.959c-.35-.702-6.36-12.754-6.36-12.754Z"/>
  <path class="st0" d="M68.464,52.295s-6.009,12.049-6.36,12.753h12.958l-6.598-12.753Z"/>
  <path class="st0" d="M51.118,48.49c.572.331,1.005.863,1.21,1.503h3.534l-4.52-3.628c-.112.702-.18,1.411-.224,2.125Z"/>
  <path class="st0" d="M90.126,22.126L53.785,1.145c-2.487-1.436-5.551-1.436-8.038,0L9.408,22.126c-2.487,1.436-4.019,4.089-4.019,6.961v41.962c0,2.872,1.532,5.525,4.019,6.961l36.339,20.981c2.487,1.436,5.551,1.436,8.038,0l36.341-20.981c2.487-1.436,4.019-4.089,4.019-6.961V29.087c0-2.872-1.532-5.525-4.019-6.961ZM63.08,82.392c0,.123-.14.224-.264.224h-26.567c-.123,0-.214-.101-.214-.224v-.167c0,.124.103.251.226.251h26.586c.123,0,.233-.128.233-.251v.167ZM63.08,81.604c0-.121-.141-.104-.264-.104h-26.567c-.123,0-.214-.019-.214.104v-1.666c0,.4.325.725.725.725h25.595c.4,0,.725-.325.725-.725v1.666ZM77.61,66.088c0,.332-.161.627-.4.824-.024.179-.065.368-.139.579-.641,1.809-1.911,3.029-3.606,3.796-3.843,1.74-7.554,1.169-11.139-.799-1.213-.666-1.835-1.788-2.152-2.913h.002c-.021-.205-.005-.398.027-.584-.33-.184-.578-.522-.578-.903v-.009c0-.558.518-1.031,1.074-1.031h.467l6.604-13.243h-15.495c-.241.605-.696,1.094-1.27,1.39-.02,6.591.097,20.796.443,22.292.266,1.151,3.525,1.889,6.167,2.388h4.74c.4,0,.725.325.725.725v.674c0-.123-.11-.144-.233-.144h-26.586c-.122,0-.226.021-.226.144v-.674c0-.4.325-.725.725-.725h3.599c2.632-.409,7.062-.904,7.385-2.25.312-1.3.871-13.692.815-22.423-.58-.296-1.04-.788-1.282-1.397h-15.492l6.604,13.244h.509c.556,0,1.008.452,1.008,1.008v.074c0,.395-.233.729-.565.895.028.175.041.357.022.549-.317,1.125-.939,2.247-2.15,2.913-3.585,1.968-7.296,2.539-11.139.799-1.695-.767-2.965-1.987-3.606-3.796-.073-.207-.113-.393-.138-.569-.242-.184-.409-.462-.409-.789v-.074c0-.556.452-1.01,1.01-1.01h.612l6.852-13.244h-4.597c-.044.078-.087.157-.143.227-.609.765-1.699.911-2.443.326h0c-.786-.616-.922-1.891-.29-2.711.384-.498,1.024-.732,1.621-.672v-15.215l11.239-6.685v22.918h6.404v-27.736l7.578-4.734,7.58,4.734v27.736h6.404v-22.918l11.239,6.685v15.217c.599-.061,1.241.173,1.625.671.632.82.495,2.095-.29,2.712-.746.585-1.833.438-2.444-.326h.002-.001c-.056-.072-.099-.151-.143-.229h-4.58l6.852,13.243h.625c.558,0,.976.473.976,1.031v.009Z"/>
  <path class="st0" d="M48.442,48.485c-.043-.847-.1-1.585-.17-2.186l-4.602,3.694h3.553c.207-.644.643-1.177,1.219-1.508Z"/>
  <path class="st0" d="M61.727,65.559c2.351-.002,4.703-.006,7.055-.009l-6.864-.129s.176-.352.186-.373h-.938l-.492.986c.281-.293.649-.475,1.053-.475Z"/>
  <path class="st0" d="M75.317,65.542c.141,0,.282,0,.424,0,.209,0,.388.023.553.056l-.285-.55h-.948l.256.495Z"/>
  <path class="st0" d="M76.294,65.598l.489.945-16.208-.306h-.002l.101-.203c-.237.247-.404.576-.471.957.153.086.318.148.496.148h15.935c.224,0,.415-.095.576-.227.098-.718-.209-1.169-.916-1.313Z"/>
  <path class="st0" d="M75.317,65.542c-2.179.003-4.357.005-6.536.008l6.604.125-.069-.133Z"/>
  <path class="st0" d="M48.197,45.766c.017.121.041.241.056.362.007.053.012.116.019.171l.322-.258c-.142-.079-.274-.171-.397-.275Z"/>
  <path class="st0" d="M51.343,46.365c.03-.188.07-.375.107-.561-.136.113-.284.21-.444.291l.337.27Z"/>
  <polygon class="st0" points="57.346 51.183 57.346 49.993 55.863 49.993 57.346 51.183"/>
  <polygon class="st0" points="43.67 49.993 42.188 49.993 42.188 51.183 43.67 49.993"/>
  <path class="st0" d="M26.018,50.439h5.086s0,0,0,0h4.68v-.446h-9.896c.06.142.103.291.13.446Z"/>
  <path class="st0" d="M68.451,50.439h5.07c.027-.155.07-.304.13-.446h-9.9v.446h4.701Z"/>
  <polygon class="st0" points="68.451 50.439 67.77 51.805 69.158 51.805 68.451 50.439"/>
  <polygon class="st0" points="31.103 50.439 30.397 51.805 31.786 51.805 31.104 50.439 31.103 50.439"/>
  <path class="st0" d="M49.776,48.119c-.488,0-.939.14-1.334.366.024.473.045.973.062,1.508h.447c.211-.213.503-.346.827-.346s.616.133.827.346h.44c.018-.502.043-1.003.074-1.503-.397-.23-.851-.371-1.342-.371Z"/>
  <path class="st0" d="M50.351,51.805c-.172.1-.36.172-.573.172s-.401-.072-.573-.172h-.661c.007.453.012.919.015,1.397.367.187.776.303,1.217.303.445,0,.859-.118,1.229-.31.002-.514.004-.979.007-1.39h-.661Z"/>
  <path class="st0" d="M52.329,49.993h-1.284c-.002.05-.005.099-.006.149-.011.316-.02.896-.026,1.663h1.262c.123-.308.195-.642.195-.993,0-.288-.057-.559-.14-.819Z"/>
  <path class="st0" d="M48.504,49.993h-1.281c-.083.26-.14.531-.14.819,0,.352.072.685.194.993h1.267c-.01-.631-.023-1.239-.04-1.812Z"/>
  <path class="st0" d="M50.943,50.812c0-.32-.13-.608-.338-.819h-1.654c-.209.211-.338.5-.338.819,0,.431.245.791.593.993h1.145c.348-.202.592-.562.592-.993Z"/>
  <path class="st0" d="M51.602,45.118c-.058.227-.107.456-.152.686.376-.31.652-.729.789-1.216-.19.202-.403.38-.637.53Z"/>
  <path class="st0" d="M47.487,44.757c.148.397.394.74.71,1.009-.026-.188-.055-.374-.087-.56-.225-.128-.434-.275-.623-.449Z"/>
  <path class="st0" d="M49.776,45.659c-.215,0-.424-.025-.628-.063l-.554.445c.363.203.777.327,1.225.327h.072c.407,0,.781-.104,1.115-.273l-.62-.498c-.198.036-.401.061-.61.061Z"/>
  <path class="st0" d="M47.982,39.948c1.166-1.089,3.141-1.055,4.189.074.996,1.071,1.014,2.948.145,4.176-.016.134-.041.263-.076.39.573-.608.93-1.421.93-2.322,0-1.875-1.518-3.393-3.393-3.393s-3.393,1.518-3.393,3.393c0,.989.429,1.871,1.104,2.491-.087-.235-.139-.486-.151-.75-.698-1.261-.462-3.023.646-4.059Z"/>
  <path class="st0" d="M50.386,45.598c.442-.08.852-.246,1.216-.48.021-.081.032-.165.055-.246.082-.061.159-.125.235-.194.159-.144.3-.306.424-.48.012-.1.029-.198.029-.301v-.072c0-1.38-1.074-2.477-2.454-2.477h-.072c-1.38,0-2.494,1.097-2.494,2.477v.072c0,.038.009.073.011.11.108.195.235.381.388.547.102.112.216.213.332.304.023.115.034.232.054.347.32.181.665.32,1.038.39l.618-.496.62.498Z"/>
  <polygon class="st0" points="60.904 78.544 60.904 78.545 60.905 78.545 60.904 78.544"/>
  <path class="st0" d="M38.638,78.237c-1.173.482,23.077.655,22.266.309h0c-.385-.165-1.729-.376-3.289-.671h-17.256c-.782.122-1.413.236-1.721.362Z"/>
  <path class="st0" d="M23.799,65.542h.439s.255-.493.255-.493h-.948l-.282.545c.161-.031.335-.053.537-.052Z"/>
  <path class="st0" d="M37.637,65.421l-6.865.129c2.347.003,4.694.007,7.041.009.419,0,.802.195,1.086.511l-.509-1.021h-.939c.01.021.186.372.186.372Z"/>
  <path class="st0" d="M38.982,66.236l-16.208.306h-.002l.49-.948c-.723.141-1.035.598-.932,1.328.169.129.37.219.599.219h15.967c.162,0,.31-.047.445-.115-.06-.378-.217-.706-.443-.957l.083.166Z"/>
  <path class="st0" d="M24.169,65.675l6.603-.125c-2.178-.003-4.357-.005-6.535-.008l-.069.132Z"/>
  <path class="st0" d="M25.888,49.993c-.115-.276-.283-.523-.514-.703-.24-.186-.53-.285-.829-.315v1.018h1.343Z"/>
  <path class="st0" d="M26.018,50.439h-1.473v-.446h-.562v1.812h1.817c.231-.408.299-.901.218-1.366Z"/>
  <path class="st0" d="M73.65,49.993h1.339v-1.016c-.298.03-.586.128-.825.314-.231.179-.398.427-.514.702Z"/>
  <path class="st0" d="M75.27,49.993h-.281v.446h-1.468c-.081.465-.014.958.217,1.366h1.532v-1.812Z"/>
</svg>