<?xml version="1.0" encoding="UTF-8"?>
<svg id="Layer_1" xmlns="http://www.w3.org/2000/svg" version="1.1" viewBox="0 0 50 50">
  <!-- Generator: Adobe Illustrator 29.8.4, SVG Export Plug-In . SVG Version: 2.1.1 Build 6)  -->
  <defs>
    <style>
      .st0 {
        fill: #004bd6;
      }
    </style>
  </defs>
  <path class="st0" d="M8.793,26.748h5.997v3.998h-5.997v-3.998ZM18.787,30.745h5.997v-3.998h-5.997v3.998ZM8.793,38.741h5.997v-3.998h-5.997v3.998ZM18.787,38.741h5.997v-3.998h-5.997v3.998ZM8.793,14.754h5.997v-3.998h-5.997v3.998ZM18.787,14.754h5.997v-3.998h-5.997v3.998ZM8.793,22.75h5.997v-3.998h-5.997v3.998ZM18.787,22.75h5.997v-3.998h-5.997v3.998ZM48.77,16.753v31.982H.797V6.759C.797,3.447,3.482.762,6.794.762h19.989c3.312,0,5.997,2.685,5.997,5.997v3.998h9.994c3.312,0,5.997,2.685,5.997,5.997ZM28.782,6.759c0-1.104-.895-1.999-1.999-1.999H6.794c-1.104,0-1.999.895-1.999,1.999v37.979h23.986V6.759ZM44.773,16.753c0-1.104-.895-1.999-1.999-1.999h-9.994v29.983h11.993v-27.984ZM36.777,30.745h3.998v-3.998h-3.998v3.998ZM36.777,38.741h3.998v-3.998h-3.998v3.998ZM36.777,22.75h3.998v-3.998h-3.998v3.998Z"/>
</svg>