<?xml version="1.0" encoding="UTF-8"?>
<svg id="Layer_1" xmlns="http://www.w3.org/2000/svg" version="1.1" viewBox="0 0 50 50">
  <!-- Generator: Adobe Illustrator 29.8.4, SVG Export Plug-In . SVG Version: 2.1.1 Build 6)  -->
  <defs>
    <style>
      .st0 {
        fill: #004bd6;
        stroke: #004bd6;
        stroke-miterlimit: 10;
        stroke-width: .5px;
      }
    </style>
  </defs>
  <path class="st0" d="M48.284,24.914h-3c0-11.43-9.299-20.729-20.729-20.729V1.185c13.084,0,23.729,10.645,23.729,23.729Z"/>
  <path class="st0" d="M41.151,24.914h-3c0-7.497-6.1-13.596-13.597-13.596v-3c9.152,0,16.597,7.445,16.597,16.596Z"/>
  <path class="st0" d="M33.207,24.914h-3c0-3.116-2.536-5.652-5.653-5.652v-3c4.771,0,8.653,3.881,8.653,8.652Z"/>
  <path class="st0" d="M28.531,48.312c-4.423,0-8.581-1.723-11.708-4.85l-10.69-10.69C-.296,26.344-.317,15.861,6.086,9.405l3.224-3.267,10.865,10.865-3.269,3.269c-1.377,1.378-1.377,3.619,0,4.997l8.304,8.304c.855.855,2.347.855,3.203,0l4.166-4.166,10.857,10.858-3.197,3.197c-3.126,3.127-7.284,4.85-11.707,4.85h0ZM9.323,10.396l-1.104,1.12c-5.246,5.289-5.229,13.872.036,19.136l10.69,10.69c2.561,2.561,5.965,3.971,9.587,3.971s7.026-1.41,9.586-3.971l1.076-1.076-6.615-6.616-2.045,2.045c-.994.994-2.316,1.542-3.723,1.542s-2.729-.548-3.723-1.542l-8.303-8.304c-2.547-2.547-2.547-6.692,0-9.239l1.147-1.147-6.609-6.608h0Z"/>
</svg>