<?xml version="1.0" encoding="UTF-8"?>
<svg id="Layer_1" xmlns="http://www.w3.org/2000/svg" version="1.1" viewBox="0 0 50 50">
  <!-- Generator: Adobe Illustrator 29.8.4, SVG Export Plug-In . SVG Version: 2.1.1 Build 6)  -->
  <defs>
    <style>
      .st0 {
        fill: #004bd6;
      }
    </style>
  </defs>
  <path class="st0" d="M23.811.836c-11.009.001-19.932,8.927-19.931,19.935,0,5.293,2.106,10.368,5.852,14.106l10.016,9.797h-9.891v3.986h27.906v-3.986h-9.891l10.032-9.813c7.783-7.786,7.781-20.406-.004-28.19-3.737-3.736-8.806-5.836-14.09-5.836ZM35.103,32.027l-11.292,11.053-11.276-11.037c-6.227-6.228-6.227-16.324,0-22.552,6.228-6.227,16.324-6.227,22.552,0,6.221,6.221,6.228,16.305.016,22.535ZM13.844,13.543v12.43l9.966,4.983,9.967-4.983v-12.43l-9.967-4.983-9.966,4.983ZM29.791,23.51l-5.98,2.99-5.98-2.99v-7.503l.235-.118,5.745,2.872,5.745-2.872.235.118v7.503Z"/>
</svg>