<?xml version="1.0" encoding="UTF-8"?>
<svg id="Layer_1" xmlns="http://www.w3.org/2000/svg" version="1.1" viewBox="0 0 50 50">
  <!-- Generator: Adobe Illustrator 29.8.4, SVG Export Plug-In . SVG Version: 2.1.1 Build 6)  -->
  <defs>
    <style>
      .st0 {
        fill: #004bd6;
      }
    </style>
  </defs>
  <path class="st0" d="M29.606.777H10.8c-3.31,0-5.993,2.683-5.993,5.993v41.951h39.953V15.931L29.606.777ZM30.777,7.597l7.164,7.164h-7.164v-7.164ZM8.802,44.725V6.77c0-1.103.894-1.998,1.998-1.998h15.981v13.984h13.984v25.97H8.802ZM31.362,26.99l2.825,2.825-7.164,7.162c-2.34,2.341-6.135,2.341-8.475,0,0,0,0,0,0,0l-3.166-3.166,2.825-2.825,3.168,3.166c.79.756,2.035.756,2.825,0l7.164-7.162Z"/>
</svg>