<?xml version="1.0" encoding="UTF-8"?>
<svg id="Layer_1" xmlns="http://www.w3.org/2000/svg" version="1.1" viewBox="0 0 50 50">
  <!-- Generator: Adobe Illustrator 29.8.4, SVG Export Plug-In . SVG Version: 2.1.1 Build 6)  -->
  <defs>
    <style>
      .st0 {
        fill: #004bd6;
      }
    </style>
  </defs>
  <path class="st0" d="M42.776.759H6.792C3.479.759.794,3.444.794,6.756v41.982h47.98V6.756c0-3.312-2.685-5.998-5.997-5.998ZM14.788,44.74v-9.996c0-1.104.895-1.999,1.999-1.999h15.993c1.104,0,1.999.895,1.999,1.999v9.996H14.788ZM44.775,44.74h-5.997v-9.996c0-3.312-2.685-5.997-5.997-5.997h-15.993c-3.312,0-5.997,2.685-5.997,5.997v9.996h-5.997V6.756c0-1.104.895-1.999,1.999-1.999h35.985c1.104,0,1.999.895,1.999,1.999v37.984Z"/>
  <path class="st0" d="M24.784,8.756c-4.416,0-7.997,3.58-7.997,7.997s3.58,7.997,7.997,7.997,7.997-3.58,7.997-7.997-3.58-7.997-7.997-7.997ZM24.784,20.75c-2.208,0-3.998-1.79-3.998-3.998s1.79-3.998,3.998-3.998,3.998,1.79,3.998,3.998-1.79,3.998-3.998,3.998Z"/>
</svg>