<?xml version="1.0" encoding="UTF-8"?>
<svg id="Layer_1" xmlns="http://www.w3.org/2000/svg" version="1.1" viewBox="0 0 50 50">
  <!-- Generator: Adobe Illustrator 29.8.4, SVG Export Plug-In . SVG Version: 2.1.1 Build 6)  -->
  <defs>
    <style>
      .st0 {
        fill: #004bd6;
      }
    </style>
  </defs>
  <path class="st0" d="M48.774,32.745v-3.998h-3.998V6.756c0-3.312-2.685-5.997-5.997-5.997H10.79c-3.312,0-5.997,2.685-5.997,5.997v21.991H.794v3.998h21.991v7.997h-3.998c-3.312,0-5.998,2.685-5.998,5.997v1.999h3.998v-1.999c0-1.104.895-1.999,1.999-1.999h11.995c1.104,0,1.999.895,1.999,1.999v1.999h3.998v-1.999c0-3.312-2.685-5.997-5.997-5.997h-3.998v-7.997h21.991ZM8.791,6.756c0-1.104.895-1.999,1.999-1.999h27.988c1.104,0,1.999.895,1.999,1.999v21.991H8.791V6.756Z"/>
</svg>