<?xml version="1.0" encoding="UTF-8"?>
<svg id="Layer_1" xmlns="http://www.w3.org/2000/svg" version="1.1" xmlns:xlink="http://www.w3.org/1999/xlink" viewBox="0 0 100 40">
  <!-- Generator: Adobe Illustrator 29.8.4, SVG Export Plug-In . SVG Version: 2.1.1 Build 6)  -->
  <defs>
    <style>
      .st0 {
        fill: #fff;
      }

      .st1 {
        fill: url(#radial-gradient);
      }

      .st2 {
        fill: #fcb813;
      }
    </style>
    <radialGradient id="radial-gradient" cx="-146.072" cy="-72.059" fx="-146.072" fy="-72.059" r="11.169" gradientTransform="translate(214.072 118.468) scale(1.353)" gradientUnits="userSpaceOnUse">
      <stop offset=".02" stop-color="#d3d7e0"/>
      <stop offset=".851" stop-color="#fff"/>
    </radialGradient>
  </defs>
  <g>
    <path class="st1" d="M31.691,18.714c-.684-3.942-3.048-7.202-6.305-9.276,3.483-2.484,6.087-3.228,6.087-3.228-2.748.643-5.188,1.499-7.356,2.503-2.96-1.508-6.499-2.107-10.132-1.477C5.561,8.699-.172,16.208,1.182,24.009c1.354,7.801,9.281,12.939,17.706,11.477,8.425-1.462,14.157-8.971,12.803-16.772ZM16.21,8.744c2.28-.396,4.511-.118,6.459.681-8.383,4.378-12.308,10.988-14.074,15.339-.796-1.143-1.357-2.458-1.608-3.899-.979-5.64,3.151-11.066,9.223-12.12h0ZM19.755,29.168c-2.825.49-5.573-.053-7.802-1.342,3.419-9.01,8.309-14.418,12.341-17.571,2.418,1.496,4.181,3.888,4.685,6.792.979,5.64-3.151,11.066-9.223,12.12h0Z"/>
    <rect class="st2" x="32.551" y="4.266" width="2.83" height="2.83" rx="1.046" ry="1.046"/>
  </g>
  <g>
    <path class="st0" d="M60.721,34.33c-2.903.936-5.652,1.404-8.245,1.404s-4.876-.559-6.886-1.677c-2.01-1.118-3.543-2.698-4.597-4.74-1.055-2.042-1.582-4.352-1.582-6.93,0-2.452.49-4.68,1.471-6.682.98-2.002,2.426-3.602,4.337-4.8,1.91-1.198,4.671-1.797,8.282-1.797,2.556,0,4.963.262,7.221.785v4.096c-2.879-1.004-5.261-1.506-7.147-1.506-1.526,0-2.937.38-4.234,1.139s-2.283,1.966-2.959,3.62c-.676,1.655-1.014,3.418-1.014,5.29,0,2.819.788,5.121,2.363,6.907s3.561,2.679,5.956,2.679c2.096,0,4.442-.559,7.035-1.678v3.89h0Z"/>
    <path class="st0" d="M64.666,35.1v-4.215c.893-1.223,1.917-2.424,3.071-3.601l.838-.84,2.531-2.658c1.253-1.303,2.277-2.587,3.071-3.85.794-1.264,1.191-2.472,1.191-3.627,0-1.178-.4-2.075-1.2-2.692-.8-.618-1.796-.926-2.987-.926-1.774,0-3.661.475-5.658,1.423v-3.804c2.183-.8,4.547-1.2,7.091-1.2,2.816,0,4.969.706,6.458,2.117s2.233,3.02,2.233,4.826c0,1.086-.273,2.132-.819,3.138s-1.663,2.263-3.35,3.772l-2.196,1.972c-2.209,1.967-3.846,3.95-4.913,5.951h11.167v4.215h-16.528Z"/>
    <path class="st0" d="M85.433,35.1v-3.392h4.028V12.693h-4.028v-3.392h13.583v3.392h-4.028v19.015h4.028v3.392h-13.583Z"/>
  </g>
</svg>